<svg width="78" height="17" viewBox="0 0 78 17" fill="none" xmlns="http://www.w3.org/2000/svg">
<path d="M0 12.5278V14.3055H5.33333V12.5278H0ZM0 1.86109V3.63887H8.88889V1.86109H0ZM8.88889 16.0833V14.3055H16V12.5278H8.88889V10.75H7.11111V16.0833H8.88889ZM3.55556 5.41665V7.19442H0V8.9722H3.55556V10.75H5.33333V5.41665H3.55556ZM16 8.9722V7.19442H7.11111V8.9722H16ZM10.6667 5.41665H12.4444V3.63887H16V1.86109H12.4444V0.083313H10.6667V5.41665Z" fill="black"/>
<path d="M21.632 13.5833C21.5253 13.5833 21.4347 13.546 21.36 13.4713C21.2853 13.3966 21.248 13.306 21.248 13.1993V2.78331C21.248 2.66598 21.2853 2.56998 21.36 2.49531C21.4347 2.42065 21.5253 2.38331 21.632 2.38331H28.576C28.6933 2.38331 28.7893 2.42065 28.864 2.49531C28.9387 2.56998 28.976 2.66598 28.976 2.78331V3.90331C28.976 4.02065 28.9387 4.11665 28.864 4.19131C28.7893 4.25531 28.6933 4.28731 28.576 4.28731H23.44V7.32731H28.256C28.3733 7.32731 28.4693 7.36465 28.544 7.43931C28.6187 7.51398 28.656 7.60998 28.656 7.72731V8.84731C28.656 8.95398 28.6187 9.04465 28.544 9.11931C28.4693 9.19398 28.3733 9.23131 28.256 9.23131H23.44V13.1993C23.44 13.306 23.4027 13.3966 23.328 13.4713C23.2533 13.546 23.1573 13.5833 23.04 13.5833H21.632ZM31.19 13.5833C31.0833 13.5833 30.9927 13.546 30.918 13.4713C30.8433 13.3966 30.806 13.306 30.806 13.1993V5.64731C30.806 5.54065 30.8433 5.44998 30.918 5.37531C30.9927 5.30065 31.0833 5.26331 31.19 5.26331H32.518C32.6353 5.26331 32.726 5.30065 32.79 5.37531C32.8647 5.44998 32.902 5.54065 32.902 5.64731V13.1993C32.902 13.306 32.8647 13.3966 32.79 13.4713C32.726 13.546 32.6353 13.5833 32.518 13.5833H31.19ZM31.126 3.88731C31.0087 3.88731 30.9127 3.85531 30.838 3.79131C30.774 3.71665 30.742 3.62065 30.742 3.50331V2.35131C30.742 2.24465 30.774 2.15398 30.838 2.07931C30.9127 2.00465 31.0087 1.96731 31.126 1.96731H32.582C32.6993 1.96731 32.7953 2.00465 32.87 2.07931C32.9447 2.15398 32.982 2.24465 32.982 2.35131V3.50331C32.982 3.62065 32.9447 3.71665 32.87 3.79131C32.7953 3.85531 32.6993 3.88731 32.582 3.88731H31.126ZM35.4248 13.5833C35.3181 13.5833 35.2274 13.546 35.1528 13.4713C35.0781 13.3966 35.0408 13.306 35.0408 13.1993V2.60731C35.0408 2.50065 35.0781 2.40998 35.1528 2.33531C35.2274 2.26065 35.3181 2.22331 35.4248 2.22331H36.7528C36.8594 2.22331 36.9501 2.26065 37.0248 2.33531C37.0994 2.40998 37.1368 2.50065 37.1368 2.60731V13.1993C37.1368 13.306 37.0994 13.3966 37.0248 13.4713C36.9501 13.546 36.8594 13.5833 36.7528 13.5833H35.4248ZM43.0191 13.5833C42.3791 13.5833 41.8405 13.4713 41.4031 13.2473C40.9658 13.0233 40.6405 12.6926 40.4271 12.2553C40.2138 11.8073 40.1071 11.2526 40.1071 10.5913V6.95931H38.8431C38.7365 6.95931 38.6458 6.92198 38.5711 6.84731C38.4965 6.77265 38.4591 6.68198 38.4591 6.57531V5.64731C38.4591 5.54065 38.4965 5.44998 38.5711 5.37531C38.6458 5.30065 38.7365 5.26331 38.8431 5.26331H40.1071V2.60731C40.1071 2.50065 40.1391 2.40998 40.2031 2.33531C40.2778 2.26065 40.3738 2.22331 40.4911 2.22331H41.7871C41.8938 2.22331 41.9845 2.26065 42.0591 2.33531C42.1338 2.40998 42.1711 2.50065 42.1711 2.60731V5.26331H44.1711C44.2778 5.26331 44.3685 5.30065 44.4431 5.37531C44.5178 5.44998 44.5551 5.54065 44.5551 5.64731V6.57531C44.5551 6.68198 44.5178 6.77265 44.4431 6.84731C44.3685 6.92198 44.2778 6.95931 44.1711 6.95931H42.1711V10.4313C42.1711 10.8686 42.2458 11.21 42.3951 11.4553C42.5551 11.7006 42.8271 11.8233 43.2111 11.8233H44.3151C44.4218 11.8233 44.5125 11.8606 44.5871 11.9353C44.6618 12.01 44.6991 12.1006 44.6991 12.2073V13.1993C44.6991 13.306 44.6618 13.3966 44.5871 13.4713C44.5125 13.546 44.4218 13.5833 44.3151 13.5833H43.0191ZM49.7025 13.7433C48.5185 13.7433 47.5798 13.402 46.8865 12.7193C46.1932 12.0366 45.8198 11.066 45.7665 9.80731C45.7558 9.70065 45.7505 9.56731 45.7505 9.40731C45.7505 9.23665 45.7558 9.10331 45.7665 9.00731C45.8092 8.20731 45.9905 7.51398 46.3105 6.92731C46.6412 6.34065 47.0945 5.89265 47.6705 5.58331C48.2465 5.26331 48.9238 5.10331 49.7025 5.10331C50.5665 5.10331 51.2918 5.28465 51.8785 5.64731C52.4652 5.99931 52.9078 6.49531 53.2065 7.13531C53.5052 7.76465 53.6545 8.49531 53.6545 9.32731V9.66331C53.6545 9.76998 53.6172 9.86065 53.5425 9.93531C53.4678 10.01 53.3718 10.0473 53.2545 10.0473H47.9425C47.9425 10.0473 47.9425 10.0633 47.9425 10.0953C47.9425 10.1273 47.9425 10.154 47.9425 10.1753C47.9532 10.5486 48.0225 10.8953 48.1505 11.2153C48.2892 11.5246 48.4865 11.7753 48.7425 11.9673C49.0092 12.1593 49.3238 12.2553 49.6865 12.2553C49.9852 12.2553 50.2358 12.2126 50.4385 12.1273C50.6412 12.0313 50.8065 11.9246 50.9345 11.8073C51.0625 11.69 51.1532 11.594 51.2065 11.5193C51.3025 11.3913 51.3772 11.3166 51.4305 11.2953C51.4945 11.2633 51.5852 11.2473 51.7025 11.2473H53.0785C53.1852 11.2473 53.2705 11.2793 53.3345 11.3433C53.4092 11.4073 53.4412 11.4873 53.4305 11.5833C53.4198 11.754 53.3292 11.962 53.1585 12.2073C52.9985 12.4526 52.7638 12.6926 52.4545 12.9273C52.1452 13.162 51.7558 13.3593 51.2865 13.5193C50.8278 13.6686 50.2998 13.7433 49.7025 13.7433ZM47.9425 8.70331H51.4785V8.65531C51.4785 8.23931 51.4092 7.87665 51.2705 7.56731C51.1318 7.25798 50.9292 7.01265 50.6625 6.83131C50.3958 6.64998 50.0758 6.55931 49.7025 6.55931C49.3292 6.55931 49.0092 6.64998 48.7425 6.83131C48.4758 7.01265 48.2732 7.25798 48.1345 7.56731C48.0065 7.87665 47.9425 8.23931 47.9425 8.65531V8.70331ZM55.7369 13.5833C55.6302 13.5833 55.5395 13.546 55.4649 13.4713C55.3902 13.3966 55.3529 13.306 55.3529 13.1993V5.66331C55.3529 5.54598 55.3902 5.44998 55.4649 5.37531C55.5395 5.30065 55.6302 5.26331 55.7369 5.26331H57.0329C57.1395 5.26331 57.2302 5.30065 57.3049 5.37531C57.3902 5.44998 57.4329 5.54598 57.4329 5.66331V6.31931C57.6782 5.97798 57.9929 5.71665 58.3769 5.53531C58.7715 5.35398 59.2249 5.26331 59.7369 5.26331H60.3929C60.5102 5.26331 60.6009 5.30065 60.6649 5.37531C60.7395 5.44998 60.7769 5.54065 60.7769 5.64731V6.79931C60.7769 6.90598 60.7395 6.99665 60.6649 7.07131C60.6009 7.14598 60.5102 7.18331 60.3929 7.18331H59.1449C58.6329 7.18331 58.2329 7.32731 57.9449 7.61531C57.6675 7.90331 57.5289 8.29798 57.5289 8.79931V13.1993C57.5289 13.306 57.4915 13.3966 57.4169 13.4713C57.3422 13.546 57.2462 13.5833 57.1289 13.5833H55.7369Z" fill="black"/>
</svg>
