<svg width="32" height="38" viewBox="0 0 32 38" fill="none" xmlns="http://www.w3.org/2000/svg">
<g clip-path="url(#clip0_5_5111)" filter="url(#filter0_d_5_5111)">
<path d="M16 29.3334C17.4667 29.3334 18.6667 28.1334 18.6667 26.6667H13.3334C13.3334 28.1334 14.5334 29.3334 16 29.3334ZM24 21.3334V14.6667C24 10.5734 21.8267 7.14671 18 6.24004V5.33337C18 4.22671 17.1067 3.33337 16 3.33337C14.8934 3.33337 14 4.22671 14 5.33337V6.24004C10.1867 7.14671 8.00004 10.56 8.00004 14.6667V21.3334L5.33337 24V25.3334H26.6667V24L24 21.3334ZM21.3334 22.6667H10.6667V14.6667C10.6667 11.36 12.68 8.66671 16 8.66671C19.32 8.66671 21.3334 11.36 21.3334 14.6667V22.6667Z" fill="black"/>
</g>
<defs>
<filter id="filter0_d_5_5111" x="-4" y="0" width="40" height="40" filterUnits="userSpaceOnUse" color-interpolation-filters="sRGB">
<feFlood flood-opacity="0" result="BackgroundImageFix"/>
<feColorMatrix in="SourceAlpha" type="matrix" values="0 0 0 0 0 0 0 0 0 0 0 0 0 0 0 0 0 0 127 0" result="hardAlpha"/>
<feOffset dy="4"/>
<feGaussianBlur stdDeviation="2"/>
<feComposite in2="hardAlpha" operator="out"/>
<feColorMatrix type="matrix" values="0 0 0 0 0 0 0 0 0 0 0 0 0 0 0 0 0 0 0.25 0"/>
<feBlend mode="normal" in2="BackgroundImageFix" result="effect1_dropShadow_5_5111"/>
<feBlend mode="normal" in="SourceGraphic" in2="effect1_dropShadow_5_5111" result="shape"/>
</filter>
<clipPath id="clip0_5_5111">
<rect width="32" height="32" fill="white"/>
</clipPath>
</defs>
</svg>
